<svg width="512" height="512" viewBox="0 0 512 512" fill="none" xmlns="http://www.w3.org/2000/svg">
  <!-- Background gradient -->
  <defs>
    <linearGradient id="bgGradient" x1="0%" y1="0%" x2="100%" y2="100%">
      <stop offset="0%" style="stop-color:#667eea;stop-opacity:1" />
      <stop offset="100%" style="stop-color:#764ba2;stop-opacity:1" />
    </linearGradient>
    <linearGradient id="textGradient" x1="0%" y1="0%" x2="100%" y2="100%">
      <stop offset="0%" style="stop-color:#ffffff;stop-opacity:1" />
      <stop offset="100%" style="stop-color:#e0e7ff;stop-opacity:1" />
    </linearGradient>
  </defs>
  
  <!-- Rounded rectangle background -->
  <rect width="512" height="512" rx="100" fill="url(#bgGradient)"/>
  
  <!-- YB Letters fused together -->
  <g transform="translate(256, 256)">
    <!-- Y letter -->
    <path d="M -120 -140 L -70 -140 L -20 -40 L -20 80 L -60 80 L -60 -40 L -95 -100 L -130 -40 L -130 80 L -170 80 L -170 -40 Z" 
          fill="url(#textGradient)" 
          stroke="#ffffff" 
          stroke-width="4"/>
    
    <!-- B letter (fused with Y) -->
    <path d="M 20 -140 L 100 -140 Q 150 -140 150 -90 Q 150 -60 130 -45 Q 155 -30 155 10 Q 155 80 95 80 L 20 80 L 20 -140 Z M 60 -100 L 60 -60 L 90 -60 Q 110 -60 110 -80 Q 110 -100 90 -100 Z M 60 -20 L 60 40 L 95 40 Q 115 40 115 10 Q 115 -20 95 -20 Z" 
          fill="url(#textGradient)" 
          stroke="#ffffff" 
          stroke-width="4"/>
    
    <!-- Connection element between Y and B -->
    <circle cx="-10" cy="0" r="8" fill="#ffffff" opacity="0.3"/>
  </g>
  
  <!-- Subtle glow effect -->
  <rect width="512" height="512" rx="100" fill="none" stroke="rgba(255,255,255,0.2)" stroke-width="2"/>
</svg>
