<svg width="512" height="512" viewBox="0 0 512 512" fill="none" xmlns="http://www.w3.org/2000/svg">
  <!-- Background gradient bleu -->
  <defs>
    <linearGradient id="bgGradient" x1="0%" y1="0%" x2="100%" y2="100%">
      <stop offset="0%" style="stop-color:#1e3a8a;stop-opacity:1" />
      <stop offset="50%" style="stop-color:#3b82f6;stop-opacity:1" />
      <stop offset="100%" style="stop-color:#60a5fa;stop-opacity:1" />
    </linearGradient>
    <linearGradient id="textGradient" x1="0%" y1="0%" x2="100%" y2="100%">
      <stop offset="0%" style="stop-color:#ffffff;stop-opacity:1" />
      <stop offset="100%" style="stop-color:#dbeafe;stop-opacity:1" />
    </linearGradient>
  </defs>
  
  <!-- Rounded rectangle background -->
  <rect width="512" height="512" rx="100" fill="url(#bgGradient)"/>
  
  <!-- YB Letters fused together -->
  <g transform="translate(256, 256)">
    <!-- Y letter -->
    <path d="M -130 -140 L -70 -140 L -20 -30 L 30 -140 L 90 -140 L 10 0 L 10 140 L -50 140 L -50 0 Z" 
          fill="url(#textGradient)" 
          stroke="#ffffff" 
          stroke-width="6"
          stroke-linejoin="round"/>
    
    <!-- B letter -->
    <path d="M 50 -140 L 140 -140 Q 190 -140 190 -85 Q 190 -50 165 -35 Q 195 -20 195 25 Q 195 140 130 140 L 50 140 Z M 110 -90 L 110 -50 L 135 -50 Q 150 -50 150 -70 Q 150 -90 135 -90 Z M 110 0 L 110 90 L 140 90 Q 155 90 155 45 Q 155 0 140 0 Z" 
          fill="url(#textGradient)" 
          stroke="#ffffff" 
          stroke-width="6"
          stroke-linejoin="round"/>
  </g>
  
  <!-- Subtle glow effect -->
  <rect width="512" height="512" rx="100" fill="none" stroke="rgba(255,255,255,0.3)" stroke-width="3"/>
</svg>
