<svg width="800" height="600" xmlns="http://www.w3.org/2000/svg">
  <defs>
    <linearGradient id="bgGrad2" x1="0%" y1="0%" x2="100%" y2="100%">
      <stop offset="0%" style="stop-color:#f093fb;stop-opacity:1" />
      <stop offset="100%" style="stop-color:#f5576c;stop-opacity:1" />
    </linearGradient>
    <linearGradient id="cardGrad" x1="0%" y1="0%" x2="100%" y2="100%">
      <stop offset="0%" style="stop-color:#2d3436;stop-opacity:1" />
      <stop offset="100%" style="stop-color:#000000;stop-opacity:1" />
    </linearGradient>
  </defs>
  
  <!-- Background -->
  <rect width="800" height="600" fill="url(#bgGrad2)"/>
  
  <!-- Playing Cards -->
  <!-- Card 1 -->
  <rect x="150" y="150" width="180" height="280" rx="15" fill="url(#cardGrad)" stroke="#f5576c" stroke-width="3" transform="rotate(-15 240 290)"/>
  <text x="200" y="200" font-family="Arial, sans-serif" font-size="60" fill="#f5576c" transform="rotate(-15 240 290)">🃏</text>
  <text x="210" y="360" font-family="Arial, sans-serif" font-size="24" font-weight="bold" fill="#fff" transform="rotate(-15 240 290)">JOKER</text>
  
  <!-- Card 2 -->
  <rect x="310" y="140" width="180" height="280" rx="15" fill="#fff" stroke="#f5576c" stroke-width="3"/>
  <text x="350" y="200" font-family="Arial, sans-serif" font-size="80" fill="#f5576c">A</text>
  <text x="365" y="270" font-family="Arial, sans-serif" font-size="60" fill="#f5576c">♠</text>
  <text x="330" y="400" font-family="Arial, sans-serif" font-size="80" fill="#f5576c" transform="rotate(180 400 340)">A</text>
  
  <!-- Card 3 -->
  <rect x="470" y="150" width="180" height="280" rx="15" fill="#fff" stroke="#f5576c" stroke-width="3" transform="rotate(15 560 290)"/>
  <text x="510" y="200" font-family="Arial, sans-serif" font-size="80" fill="#dc143c" transform="rotate(15 560 290)">K</text>
  <text x="525" y="270" font-family="Arial, sans-serif" font-size="60" fill="#dc143c" transform="rotate(15 560 290)">♥</text>
  
  <!-- Game Elements -->
  <circle cx="400" cy="500" r="40" fill="#fff" opacity="0.3"/>
  <circle cx="400" cy="500" r="30" fill="none" stroke="#fff" stroke-width="4"/>
  <text x="385" y="515" font-family="Arial, sans-serif" font-size="24" font-weight="bold" fill="#fff">🎲</text>
  
  <!-- Title -->
  <rect x="250" y="30" width="300" height="60" rx="30" fill="#2d3436" opacity="0.8"/>
  <text x="340" y="70" font-family="Arial, sans-serif" font-size="32" font-weight="bold" fill="#fff">JOKER</text>
  
  <!-- Decorative chips -->
  <circle cx="100" cy="520" r="25" fill="#f5576c"/>
  <text x="88" y="530" font-family="Arial, sans-serif" font-size="20" font-weight="bold" fill="#fff">$</text>
  
  <circle cx="700" cy="100" r="25" fill="#fff"/>
  <text x="688" y="110" font-family="Arial, sans-serif" font-size="20" font-weight="bold" fill="#f5576c">$</text>
  
  <circle cx="150" cy="80" r="20" fill="#f5576c" opacity="0.6"/>
  <circle cx="680" cy="520" r="20" fill="#fff" opacity="0.6"/>
</svg>